<?xml version="1.0" standalone="no"?>
<!DOCTYPE svg PUBLIC "-//W3C//DTD SVG 20010904//EN"
 "http://www.w3.org/TR/2001/REC-SVG-20010904/DTD/svg10.dtd">
<svg version="1.0" xmlns="http://www.w3.org/2000/svg"
 width="64.000000pt" height="64.000000pt" viewBox="0 0 64.000000 64.000000"
 preserveAspectRatio="xMidYMid meet">

<g transform="translate(0.000000,64.000000) scale(0.100000,-0.100000)"
fill="#000000" stroke="none">
<path d="M470 584 c-78 -50 -89 -54 -128 -49 -26 3 -56 15 -73 30 -37 30 -97
44 -110 24 -8 -13 -13 -52 -10 -72 1 -4 -12 -19 -29 -33 -22 -19 -30 -34 -30
-59 0 -18 -7 -39 -16 -46 -12 -10 -15 -25 -11 -57 2 -24 0 -57 -6 -72 -10 -25
-8 -34 11 -59 12 -17 22 -44 22 -60 0 -36 38 -84 80 -101 16 -7 30 -16 30 -21
0 -5 88 -9 195 -9 170 0 195 2 195 16 0 28 -19 51 -72 90 l-53 37 43 15 c49
16 68 40 77 97 8 50 -19 103 -63 125 -17 8 -32 18 -32 23 0 4 22 52 50 107 46
93 54 130 26 130 -6 0 -49 -25 -96 -56z m90 18 c0 -13 -12 -22 -22 -16 -10 6
-1 24 13 24 5 0 9 -4 9 -8z m-331 -36 c15 -8 33 -22 40 -30 8 -9 21 -16 30
-16 66 0 138 -50 148 -103 5 -22 16 -33 49 -47 44 -19 74 -60 74 -99 0 -54
-49 -101 -105 -101 -41 0 -28 -28 33 -75 99 -75 98 -75 -106 -75 l-179 0 -26
58 c-48 106 -55 250 -17 359 8 21 8 43 2 67 -12 42 -5 76 15 76 8 0 26 -6 42
-14z m298 3 c6 -6 9 -18 6 -26 -5 -11 -9 -11 -24 3 -11 9 -19 21 -19 26 0 12
24 10 37 -3z m-38 -43 c34 -36 16 -54 -20 -20 -15 15 -26 31 -23 36 8 13 19 9
43 -16z m-6 -82 c-4 -10 -17 -1 -43 28 -21 24 -36 47 -33 51 8 14 82 -64 76
-79z m-329 14 c-10 -33 -44 -53 -44 -26 0 14 30 48 42 48 5 0 6 -10 2 -22z
m-29 -95 c-12 -50 -45 -73 -45 -31 0 22 26 58 43 58 5 0 6 -12 2 -27z"/>
<path d="M190 540 c0 -5 9 -10 19 -10 10 0 21 -7 25 -15 6 -16 26 -21 26 -6 0
16 -31 41 -51 41 -10 0 -19 -4 -19 -10z"/>
<path d="M287 363 c8 -24 33 -43 54 -43 21 0 49 26 49 46 0 21 -17 17 -23 -6
-3 -12 -14 -20 -26 -20 -11 0 -25 9 -31 20 -13 25 -32 27 -23 3z"/>
</g>
</svg>
